<?xml version="1.0" encoding="UTF-8" standalone="no"?><!DOCTYPE svg PUBLIC "-//W3C//DTD SVG 1.1//EN" "http://www.w3.org/Graphics/SVG/1.1/DTD/svg11.dtd"><svg width="100%" height="100%" viewBox="0 0 100 100" version="1.1" xmlns="http://www.w3.org/2000/svg" xmlns:xlink="http://www.w3.org/1999/xlink" xml:space="preserve" xmlns:serif="http://www.serif.com/" style="fill-rule:evenodd;clip-rule:evenodd;stroke-linejoin:round;stroke-miterlimit:1.41421;"><path id="surface1" d="M51.813,6.563c-18.68,0.421 -20.797,14.07 -16.813,29.812c-0.625,0.422 -1.898,1.922 -1.688,4.438c0.626,4.617 2.516,5.874 3.563,5.874c0.422,3.149 1.906,6.461 3.375,8.563c1.047,1.469 1.438,3.359 1.438,5.25c-0.001,1.68 0.023,0.609 -0.188,2.5c-0.211,0.609 -0.508,1.164 -0.875,1.687c0.43,1.618 2.906,9.313 11.375,9.313c8.672,0 11,-8.305 11.25,-9.313c-0.391,-0.515 -0.703,-1.078 -0.938,-1.687c-0.21,-2.305 -0.249,-1.234 -0.249,-3.125c0,-1.68 0.656,-3.117 1.5,-4.375c1.468,-2.102 2.89,-5.664 3.312,-8.813c1.266,0 3.141,-1.257 3.563,-5.875c0.21,-2.515 -0.782,-4.015 -1.626,-4.437c2.102,-5.875 6.055,-24.109 -7.374,-26c-1.469,-2.516 -5.008,-3.813 -9.625,-3.813Zm14.75,60.938c-1.68,4.469 -6.125,10.5 -14.563,10.5c-8.445,0 -12.875,-5.922 -14.625,-10.438c-8.312,5.118 -25.25,6.688 -25.25,24.438l79.75,0c0,-18.203 -16.859,-19.453 -25.312,-24.5Z" style="fill:#224870;fill-rule:nonzero;"/></svg>